<svg width="424" height="32" viewBox="0 0 424 32" fill="none" xmlns="http://www.w3.org/2000/svg">
<path d="M10.6667 16C10.6667 18.9455 13.0545 21.3333 16 21.3333C18.9455 21.3333 21.3333 18.9455 21.3333 16C21.3333 13.0545 18.9455 10.6667 16 10.6667C13.0545 10.6667 10.6667 13.0545 10.6667 16ZM412.667 16C412.667 18.9456 415.054 21.3334 418 21.3334C420.946 21.3334 423.333 18.9456 423.333 16C423.333 13.0545 420.946 10.6667 418 10.6667C415.054 10.6667 412.667 13.0545 412.667 16ZM16 17L418 17L418 15L16 15L16 17Z" fill="white"/>
<circle cx="16" cy="16" r="16" fill="white" fill-opacity="0.32"/>
</svg>
