<svg width="174" height="32" viewBox="0 0 174 32" fill="none" xmlns="http://www.w3.org/2000/svg">
<circle cx="16" cy="16" r="16" fill="white" fill-opacity="0.32"/>
<path d="M10.6667 16C10.6667 18.9455 13.0545 21.3333 16 21.3333C18.9455 21.3333 21.3333 18.9455 21.3333 16C21.3333 13.0545 18.9455 10.6667 16 10.6667C13.0545 10.6667 10.6667 13.0545 10.6667 16ZM162.667 16C162.667 18.9455 165.054 21.3333 168 21.3333C170.946 21.3333 173.333 18.9455 173.333 16C173.333 13.0545 170.946 10.6667 168 10.6667C165.054 10.6667 162.667 13.0545 162.667 16ZM16 17L168 17L168 15L16 15L16 17Z" fill="white"/>
</svg>
