<svg width="534" height="32" viewBox="0 0 534 32" fill="none" xmlns="http://www.w3.org/2000/svg">
<circle cx="16" cy="16" r="16" fill="white" fill-opacity="0.32"/>
<path d="M10.6667 16C10.6667 18.9455 13.0545 21.3333 16 21.3333C18.9455 21.3333 21.3333 18.9455 21.3333 16C21.3333 13.0545 18.9455 10.6667 16 10.6667C13.0545 10.6667 10.6667 13.0545 10.6667 16ZM522.667 16C522.667 18.9455 525.054 21.3333 528 21.3333C530.945 21.3333 533.333 18.9455 533.333 16C533.333 13.0544 530.945 10.6666 528 10.6666C525.054 10.6666 522.667 13.0544 522.667 16ZM16 17L528 17L528 15L16 15L16 17Z" fill="white"/>
</svg>
