<svg width="294" height="32" viewBox="0 0 294 32" fill="none" xmlns="http://www.w3.org/2000/svg">
<path d="M10.6667 16C10.6667 18.9455 13.0545 21.3333 16 21.3333C18.9455 21.3333 21.3333 18.9455 21.3333 16C21.3333 13.0545 18.9455 10.6667 16 10.6667C13.0545 10.6667 10.6667 13.0545 10.6667 16ZM282.667 16C282.667 18.9455 285.054 21.3333 288 21.3333C290.946 21.3333 293.333 18.9455 293.333 16C293.333 13.0545 290.946 10.6666 288 10.6666C285.054 10.6666 282.667 13.0545 282.667 16ZM16 17L288 17L288 15L16 15L16 17Z" fill="white"/>
<circle cx="16" cy="16" r="16" fill="white" fill-opacity="0.32"/>
</svg>
