<svg width="93" height="32" viewBox="0 0 93 32" fill="none" xmlns="http://www.w3.org/2000/svg">
<circle cx="16" cy="16" r="16" fill="white" fill-opacity="0.32"/>
<path d="M10.6667 16C10.6667 18.9455 13.0545 21.3333 16 21.3333C18.9455 21.3333 21.3333 18.9455 21.3333 16C21.3333 13.0545 18.9455 10.6667 16 10.6667C13.0545 10.6667 10.6667 13.0545 10.6667 16ZM81.6667 16C81.6667 18.9455 84.0545 21.3333 87 21.3333C89.9455 21.3333 92.3333 18.9455 92.3333 16C92.3333 13.0545 89.9455 10.6667 87 10.6667C84.0545 10.6667 81.6667 13.0545 81.6667 16ZM16 17L87 17L87 15L16 15L16 17Z" fill="white"/>
</svg>
